<?xml version="1.0" encoding="utf-8" standalone="no"?>
<!DOCTYPE svg PUBLIC "-//W3C//DTD SVG 1.1//EN"
  "http://www.w3.org/Graphics/SVG/1.1/DTD/svg11.dtd">
<svg xmlns:xlink="http://www.w3.org/1999/xlink" width="460.8pt" height="345.6pt" viewBox="0 0 460.8 345.6" xmlns="http://www.w3.org/2000/svg" version="1.1">
 <metadata>
  <rdf:RDF xmlns:dc="http://purl.org/dc/elements/1.1/" xmlns:cc="http://creativecommons.org/ns#" xmlns:rdf="http://www.w3.org/1999/02/22-rdf-syntax-ns#">
   <cc:Work>
    <dc:type rdf:resource="http://purl.org/dc/dcmitype/StillImage"/>
    <dc:date>2025-01-01T16:53:06.326380</dc:date>
    <dc:format>image/svg+xml</dc:format>
    <dc:creator>
     <cc:Agent>
      <dc:title>Matplotlib v3.9.2, https://matplotlib.org/</dc:title>
     </cc:Agent>
    </dc:creator>
   </cc:Work>
  </rdf:RDF>
 </metadata>
 <defs>
  <style type="text/css">*{stroke-linejoin: round; stroke-linecap: butt}</style>
 </defs>
 <g id="figure_1">
  <g id="patch_1">
   <path d="M 0 345.6 
L 460.8 345.6 
L 460.8 0 
L 0 0 
z
" style="fill: #ffffff"/>
  </g>
  <g id="axes_1">
   <g id="patch_2">
    <path d="M 49.52 302.2 
L 450 302.2 
L 450 10.8 
L 49.52 10.8 
z
" style="fill: #ffffff"/>
   </g>
   <g id="matplotlib.axis_1">
    <g id="xtick_1">
     <g id="line2d_1">
      <defs>
       <path id="mba36a7b1ee" d="M 0 0 
L 0 3.5 
" style="stroke: #000000; stroke-width: 0.8"/>
      </defs>
      <g>
       <use xlink:href="#mba36a7b1ee" x="83.832538" y="302.2" style="stroke: #000000; stroke-width: 0.8"/>
      </g>
     </g>
     <g id="text_1">
      <!-- 1 -->
      <g transform="translate(80.651288 316.798437) scale(0.1 -0.1)">
       <defs>
        <path id="DejaVuSans-31" d="M 794 531 
L 1825 531 
L 1825 4091 
L 703 3866 
L 703 4441 
L 1819 4666 
L 2450 4666 
L 2450 531 
L 3481 531 
L 3481 0 
L 794 0 
L 794 531 
z
" transform="scale(0.015625)"/>
       </defs>
       <use xlink:href="#DejaVuSans-31"/>
      </g>
     </g>
    </g>
    <g id="xtick_2">
     <g id="line2d_2">
      <g>
       <use xlink:href="#mba36a7b1ee" x="160.620227" y="302.2" style="stroke: #000000; stroke-width: 0.8"/>
      </g>
     </g>
     <g id="text_2">
      <!-- 2 -->
      <g transform="translate(157.438977 316.798437) scale(0.1 -0.1)">
       <defs>
        <path id="DejaVuSans-32" d="M 1228 531 
L 3431 531 
L 3431 0 
L 469 0 
L 469 531 
Q 828 903 1448 1529 
Q 2069 2156 2228 2338 
Q 2531 2678 2651 2914 
Q 2772 3150 2772 3378 
Q 2772 3750 2511 3984 
Q 2250 4219 1831 4219 
Q 1534 4219 1204 4116 
Q 875 4013 500 3803 
L 500 4441 
Q 881 4594 1212 4672 
Q 1544 4750 1819 4750 
Q 2544 4750 2975 4387 
Q 3406 4025 3406 3419 
Q 3406 3131 3298 2873 
Q 3191 2616 2906 2266 
Q 2828 2175 2409 1742 
Q 1991 1309 1228 531 
z
" transform="scale(0.015625)"/>
       </defs>
       <use xlink:href="#DejaVuSans-32"/>
      </g>
     </g>
    </g>
    <g id="xtick_3">
     <g id="line2d_3">
      <g>
       <use xlink:href="#mba36a7b1ee" x="237.407917" y="302.2" style="stroke: #000000; stroke-width: 0.8"/>
      </g>
     </g>
     <g id="text_3">
      <!-- 3 -->
      <g transform="translate(234.226667 316.798437) scale(0.1 -0.1)">
       <defs>
        <path id="DejaVuSans-33" d="M 2597 2516 
Q 3050 2419 3304 2112 
Q 3559 1806 3559 1356 
Q 3559 666 3084 287 
Q 2609 -91 1734 -91 
Q 1441 -91 1130 -33 
Q 819 25 488 141 
L 488 750 
Q 750 597 1062 519 
Q 1375 441 1716 441 
Q 2309 441 2620 675 
Q 2931 909 2931 1356 
Q 2931 1769 2642 2001 
Q 2353 2234 1838 2234 
L 1294 2234 
L 1294 2753 
L 1863 2753 
Q 2328 2753 2575 2939 
Q 2822 3125 2822 3475 
Q 2822 3834 2567 4026 
Q 2313 4219 1838 4219 
Q 1578 4219 1281 4162 
Q 984 4106 628 3988 
L 628 4550 
Q 988 4650 1302 4700 
Q 1616 4750 1894 4750 
Q 2613 4750 3031 4423 
Q 3450 4097 3450 3541 
Q 3450 3153 3228 2886 
Q 3006 2619 2597 2516 
z
" transform="scale(0.015625)"/>
       </defs>
       <use xlink:href="#DejaVuSans-33"/>
      </g>
     </g>
    </g>
    <g id="xtick_4">
     <g id="line2d_4">
      <g>
       <use xlink:href="#mba36a7b1ee" x="314.195606" y="302.2" style="stroke: #000000; stroke-width: 0.8"/>
      </g>
     </g>
     <g id="text_4">
      <!-- 4 -->
      <g transform="translate(311.014356 316.798437) scale(0.1 -0.1)">
       <defs>
        <path id="DejaVuSans-34" d="M 2419 4116 
L 825 1625 
L 2419 1625 
L 2419 4116 
z
M 2253 4666 
L 3047 4666 
L 3047 1625 
L 3713 1625 
L 3713 1100 
L 3047 1100 
L 3047 0 
L 2419 0 
L 2419 1100 
L 313 1100 
L 313 1709 
L 2253 4666 
z
" transform="scale(0.015625)"/>
       </defs>
       <use xlink:href="#DejaVuSans-34"/>
      </g>
     </g>
    </g>
    <g id="xtick_5">
     <g id="line2d_5">
      <g>
       <use xlink:href="#mba36a7b1ee" x="390.983296" y="302.2" style="stroke: #000000; stroke-width: 0.8"/>
      </g>
     </g>
     <g id="text_5">
      <!-- 5 -->
      <g transform="translate(387.802046 316.798437) scale(0.1 -0.1)">
       <defs>
        <path id="DejaVuSans-35" d="M 691 4666 
L 3169 4666 
L 3169 4134 
L 1269 4134 
L 1269 2991 
Q 1406 3038 1543 3061 
Q 1681 3084 1819 3084 
Q 2600 3084 3056 2656 
Q 3513 2228 3513 1497 
Q 3513 744 3044 326 
Q 2575 -91 1722 -91 
Q 1428 -91 1123 -41 
Q 819 9 494 109 
L 494 744 
Q 775 591 1075 516 
Q 1375 441 1709 441 
Q 2250 441 2565 725 
Q 2881 1009 2881 1497 
Q 2881 1984 2565 2268 
Q 2250 2553 1709 2553 
Q 1456 2553 1204 2497 
Q 953 2441 691 2322 
L 691 4666 
z
" transform="scale(0.015625)"/>
       </defs>
       <use xlink:href="#DejaVuSans-35"/>
      </g>
     </g>
    </g>
    <g id="text_6">
     <!-- $k$ -->
     <g transform="translate(246.28 331.99625) scale(0.12 -0.12)">
      <defs>
       <path id="DejaVuSans-Oblique-6b" d="M 1172 4863 
L 1747 4863 
L 1197 2028 
L 3169 3500 
L 3916 3500 
L 1716 1825 
L 3322 0 
L 2625 0 
L 1131 1709 
L 800 0 
L 225 0 
L 1172 4863 
z
" transform="scale(0.015625)"/>
      </defs>
      <use xlink:href="#DejaVuSans-Oblique-6b" transform="translate(0 0.015625)"/>
     </g>
    </g>
   </g>
   <g id="matplotlib.axis_2">
    <g id="ytick_1">
     <g id="line2d_6">
      <defs>
       <path id="m4bbd017e6d" d="M 0 0 
L -3.5 0 
" style="stroke: #000000; stroke-width: 0.8"/>
      </defs>
      <g>
       <use xlink:href="#m4bbd017e6d" x="49.52" y="268.49941" style="stroke: #000000; stroke-width: 0.8"/>
      </g>
     </g>
     <g id="text_7">
      <!-- −1 -->
      <g transform="translate(27.777813 272.298629) scale(0.1 -0.1)">
       <defs>
        <path id="DejaVuSans-2212" d="M 678 2272 
L 4684 2272 
L 4684 1741 
L 678 1741 
L 678 2272 
z
" transform="scale(0.015625)"/>
       </defs>
       <use xlink:href="#DejaVuSans-2212"/>
       <use xlink:href="#DejaVuSans-31" x="83.789062"/>
      </g>
     </g>
    </g>
    <g id="ytick_2">
     <g id="line2d_7">
      <g>
       <use xlink:href="#m4bbd017e6d" x="49.52" y="219.345287" style="stroke: #000000; stroke-width: 0.8"/>
      </g>
     </g>
     <g id="text_8">
      <!-- 0 -->
      <g transform="translate(36.1575 223.144506) scale(0.1 -0.1)">
       <defs>
        <path id="DejaVuSans-30" d="M 2034 4250 
Q 1547 4250 1301 3770 
Q 1056 3291 1056 2328 
Q 1056 1369 1301 889 
Q 1547 409 2034 409 
Q 2525 409 2770 889 
Q 3016 1369 3016 2328 
Q 3016 3291 2770 3770 
Q 2525 4250 2034 4250 
z
M 2034 4750 
Q 2819 4750 3233 4129 
Q 3647 3509 3647 2328 
Q 3647 1150 3233 529 
Q 2819 -91 2034 -91 
Q 1250 -91 836 529 
Q 422 1150 422 2328 
Q 422 3509 836 4129 
Q 1250 4750 2034 4750 
z
" transform="scale(0.015625)"/>
       </defs>
       <use xlink:href="#DejaVuSans-30"/>
      </g>
     </g>
    </g>
    <g id="ytick_3">
     <g id="line2d_8">
      <g>
       <use xlink:href="#m4bbd017e6d" x="49.52" y="170.191164" style="stroke: #000000; stroke-width: 0.8"/>
      </g>
     </g>
     <g id="text_9">
      <!-- 1 -->
      <g transform="translate(36.1575 173.990382) scale(0.1 -0.1)">
       <use xlink:href="#DejaVuSans-31"/>
      </g>
     </g>
    </g>
    <g id="ytick_4">
     <g id="line2d_9">
      <g>
       <use xlink:href="#m4bbd017e6d" x="49.52" y="121.03704" style="stroke: #000000; stroke-width: 0.8"/>
      </g>
     </g>
     <g id="text_10">
      <!-- 2 -->
      <g transform="translate(36.1575 124.836259) scale(0.1 -0.1)">
       <use xlink:href="#DejaVuSans-32"/>
      </g>
     </g>
    </g>
    <g id="ytick_5">
     <g id="line2d_10">
      <g>
       <use xlink:href="#m4bbd017e6d" x="49.52" y="71.882917" style="stroke: #000000; stroke-width: 0.8"/>
      </g>
     </g>
     <g id="text_11">
      <!-- 3 -->
      <g transform="translate(36.1575 75.682136) scale(0.1 -0.1)">
       <use xlink:href="#DejaVuSans-33"/>
      </g>
     </g>
    </g>
    <g id="ytick_6">
     <g id="line2d_11">
      <g>
       <use xlink:href="#m4bbd017e6d" x="49.52" y="22.728794" style="stroke: #000000; stroke-width: 0.8"/>
      </g>
     </g>
     <g id="text_12">
      <!-- 4 -->
      <g transform="translate(36.1575 26.528013) scale(0.1 -0.1)">
       <use xlink:href="#DejaVuSans-34"/>
      </g>
     </g>
    </g>
    <g id="text_13">
     <!-- $V(k)$ -->
     <g transform="translate(21.282188 168.8) rotate(-90) scale(0.12 -0.12)">
      <defs>
       <path id="DejaVuSans-Oblique-56" d="M 1319 0 
L 500 4666 
L 1119 4666 
L 1797 653 
L 4063 4666 
L 4750 4666 
L 2053 0 
L 1319 0 
z
" transform="scale(0.015625)"/>
       <path id="DejaVuSans-28" d="M 1984 4856 
Q 1566 4138 1362 3434 
Q 1159 2731 1159 2009 
Q 1159 1288 1364 580 
Q 1569 -128 1984 -844 
L 1484 -844 
Q 1016 -109 783 600 
Q 550 1309 550 2009 
Q 550 2706 781 3412 
Q 1013 4119 1484 4856 
L 1984 4856 
z
" transform="scale(0.015625)"/>
       <path id="DejaVuSans-29" d="M 513 4856 
L 1013 4856 
Q 1481 4119 1714 3412 
Q 1947 2706 1947 2009 
Q 1947 1309 1714 600 
Q 1481 -109 1013 -844 
L 513 -844 
Q 928 -128 1133 580 
Q 1338 1288 1338 2009 
Q 1338 2731 1133 3434 
Q 928 4138 513 4856 
z
" transform="scale(0.015625)"/>
      </defs>
      <use xlink:href="#DejaVuSans-Oblique-56" transform="translate(0 0.015625)"/>
      <use xlink:href="#DejaVuSans-28" transform="translate(68.408203 0.015625)"/>
      <use xlink:href="#DejaVuSans-Oblique-6b" transform="translate(107.421875 0.015625)"/>
      <use xlink:href="#DejaVuSans-29" transform="translate(165.332031 0.015625)"/>
     </g>
    </g>
   </g>
   <g id="line2d_12">
    <path d="M 67.723636 288.954545 
L 75.153692 276.461013 
L 82.583748 265.086808 
L 90.013803 255.00334 
L 97.443859 245.604309 
L 104.873915 237.19257 
L 112.30397 229.636316 
L 119.734026 222.842879 
L 127.164082 216.725243 
L 134.594137 217.591565 
L 142.024193 210.778336 
L 149.454249 208.354057 
L 156.884304 201.866623 
L 164.31436 199.498436 
L 171.744416 192.4348 
L 179.174471 189.430773 
L 186.604527 194.075102 
L 194.034583 194.783254 
L 201.464638 180.792127 
L 208.894694 185.799872 
L 216.32475 178.690719 
L 223.754805 170.575338 
L 231.184861 187.468069 
L 238.614917 167.484218 
L 246.044972 171.820597 
L 253.475028 166.756197 
L 260.905083 163.939512 
L 268.335139 169.852883 
L 275.765195 156.775696 
L 283.19525 167.983866 
L 290.625306 154.56756 
L 298.055362 146.822055 
L 305.485417 152.598727 
L 312.915473 176.488099 
L 320.345529 156.012914 
L 327.775584 167.999839 
L 335.20564 141.023019 
L 342.635696 146.425508 
L 350.065751 141.18728 
L 357.495807 137.603269 
L 364.925863 150.681228 
L 372.355918 142.944068 
L 379.785974 155.592495 
L 387.21603 121.965152 
L 394.646085 72.796099 
L 402.076141 123.968255 
L 409.506197 137.431141 
L 416.936252 119.153273 
L 424.366308 141.373294 
L 431.796364 115.157751 
" clip-path="url(#pb54ab7299c)" style="fill: none; stroke: #1f77b4; stroke-opacity: 0.5; stroke-width: 1.5; stroke-linecap: square"/>
   </g>
   <g id="line2d_13">
    <path d="M 67.723636 288.949609 
L 75.153692 276.456077 
L 82.583748 265.081612 
L 90.013803 254.998144 
L 97.443859 245.598839 
L 104.873915 237.186812 
L 112.30397 229.635326 
L 119.734026 222.842378 
L 127.164082 216.724215 
L 134.594137 217.590136 
L 142.024193 210.776832 
L 149.454249 208.352057 
L 156.884304 201.866122 
L 164.31436 195.541876 
L 171.744416 192.431336 
L 179.174471 166.332732 
L 186.604527 194.074601 
L 194.034583 156.986624 
L 201.464638 153.761922 
L 208.894694 150.745516 
L 216.32475 145.319088 
L 223.754805 142.591534 
L 231.184861 148.719279 
L 238.614917 145.537806 
L 246.044972 121.993566 
L 253.475028 118.986202 
L 260.905083 127.302296 
L 268.335139 133.041031 
L 275.765195 123.999834 
L 283.19525 116.50484 
L 290.625306 105.987969 
L 298.055362 74.293357 
L 305.485417 111.050686 
L 312.915473 68.197116 
L 320.345529 107.873398 
L 327.775584 106.135716 
L 335.20564 99.882834 
L 342.635696 88.937265 
L 350.065751 94.094389 
L 357.495807 89.667517 
L 364.925863 87.42406 
L 372.355918 82.104069 
L 379.785974 77.750159 
L 387.21603 75.080058 
L 394.646085 54.565279 
L 402.076141 70.736531 
L 409.506197 85.081346 
L 416.936252 50.42688 
L 424.366308 61.890075 
L 431.796364 64.644581 
" clip-path="url(#pb54ab7299c)" style="fill: none; stroke: #ff7f0e; stroke-opacity: 0.5; stroke-width: 1.5; stroke-linecap: square"/>
   </g>
   <g id="line2d_14">
    <path d="M 67.723636 272.901018 
L 75.153692 260.407486 
L 82.583748 248.188358 
L 90.013803 238.10489 
L 97.443859 227.816467 
L 104.873915 218.468525 
L 112.30397 209.931866 
L 119.734026 202.101894 
L 127.164082 193.309957 
L 134.594137 187.825167 
L 142.024193 176.253745 
L 149.454249 167.867766 
L 156.884304 159.63617 
L 164.31436 155.667448 
L 171.744416 147.94317 
L 179.174471 139.705639 
L 186.604527 137.019116 
L 194.034583 128.958105 
L 201.464638 124.258218 
L 208.894694 119.704637 
L 216.32475 115.942782 
L 223.754805 109.288745 
L 231.184861 104.601444 
L 238.614917 100.227415 
L 246.044972 96.495172 
L 253.475028 92.329818 
L 260.905083 90.966145 
L 268.335139 85.442059 
L 275.765195 82.034341 
L 283.19525 79.439309 
L 290.625306 76.736843 
L 298.055362 74.2185 
L 305.485417 70.592057 
L 312.915473 68.119229 
L 320.345529 64.598934 
L 327.775584 61.527497 
L 335.20564 59.786203 
L 342.635696 55.795058 
L 350.065751 54.310678 
L 357.495807 50.24483 
L 364.925863 49.664967 
L 372.355918 46.449026 
L 379.785974 42.553675 
L 387.21603 41.973348 
L 394.646085 39.939794 
L 402.076141 37.113806 
L 409.506197 33.145885 
L 416.936252 32.57935 
L 424.366308 30.529097 
L 431.796364 28.565841 
" clip-path="url(#pb54ab7299c)" style="fill: none; stroke: #2ca02c; stroke-opacity: 0.5; stroke-width: 1.5; stroke-linecap: square"/>
   </g>
   <g id="line2d_15">
    <path d="M 67.723636 264.605542 
L 75.153692 250.836597 
L 82.583748 239.456279 
L 90.013803 228.030271 
L 97.443859 218.624804 
L 104.873915 208.793091 
L 112.30397 200.431544 
L 119.734026 192.101555 
L 127.164082 182.417909 
L 134.594137 177.138537 
L 142.024193 168.271308 
L 149.454249 165.622277 
L 156.884304 155.380634 
L 164.31436 149.572792 
L 171.744416 145.579498 
L 179.174471 138.071829 
L 186.604527 132.986168 
L 194.034583 127.238304 
L 201.464638 122.447901 
L 208.894694 117.799041 
L 216.32475 113.271228 
L 223.754805 108.84527 
L 231.184861 104.503066 
L 238.614917 100.227415 
L 246.044972 96.495172 
L 253.475028 92.329818 
L 260.905083 88.768123 
L 268.335139 85.32637 
L 275.765195 81.924437 
L 283.19525 78.569101 
L 290.625306 75.698946 
L 298.055362 73.228324 
L 305.485417 69.605577 
L 312.915473 66.450383 
L 320.345529 63.661777 
L 327.775584 60.637199 
L 335.20564 57.881794 
L 342.635696 54.949274 
L 350.065751 52.579017 
L 357.495807 49.441336 
L 364.925863 46.811826 
L 372.355918 44.265859 
L 379.785974 41.790355 
L 387.21603 39.133759 
L 394.646085 36.75202 
L 402.076141 34.443083 
L 409.506197 31.899167 
L 416.936252 29.702877 
L 424.366308 27.26962 
L 431.796364 25.1697 
" clip-path="url(#pb54ab7299c)" style="fill: none; stroke: #d62728; stroke-opacity: 0.5; stroke-width: 1.5; stroke-linecap: square"/>
   </g>
   <g id="line2d_16">
    <path d="M 67.723636 262.014397 
L 75.153692 248.433503 
L 82.583748 236.728757 
L 90.013803 225.500698 
L 97.443859 215.753729 
L 104.873915 206.130382 
L 112.30397 197.768836 
L 119.734026 189.298704 
L 127.164082 181.633755 
L 134.594137 174.348125 
L 142.024193 167.445883 
L 149.454249 160.942445 
L 156.884304 154.791555 
L 164.31436 148.952709 
L 171.744416 143.390109 
L 179.174471 138.071829 
L 186.604527 132.986168 
L 194.034583 127.238304 
L 201.464638 122.447901 
L 208.894694 117.799041 
L 216.32475 113.271228 
L 223.754805 108.84527 
L 231.184861 104.503066 
L 238.614917 100.227415 
L 246.044972 96.14351 
L 253.475028 92.329818 
L 260.905083 88.768123 
L 268.335139 85.32637 
L 275.765195 81.924437 
L 283.19525 78.569101 
L 290.625306 75.266297 
L 298.055362 72.021197 
L 305.485417 68.838292 
L 312.915473 65.721462 
L 320.345529 62.674035 
L 327.775584 59.698844 
L 335.20564 56.798277 
L 342.635696 53.974326 
L 350.065751 51.228622 
L 357.495807 48.515135 
L 364.925863 45.861082 
L 372.355918 43.241777 
L 379.785974 40.682912 
L 387.21603 38.160881 
L 394.646085 35.699949 
L 402.076141 33.277558 
L 409.506197 30.916633 
L 416.936252 28.595628 
L 424.366308 26.30405 
L 431.796364 24.049412 
" clip-path="url(#pb54ab7299c)" style="fill: none; stroke: #9467bd; stroke-opacity: 0.5; stroke-width: 1.5; stroke-linecap: square"/>
   </g>
   <g id="line2d_17">
    <path d="M 67.723636 261.301732 
L 75.153692 247.987865 
L 82.583748 235.978584 
L 90.013803 225.031605 
L 97.443859 214.964072 
L 104.873915 205.6366 
L 112.30397 196.937618 
L 119.734026 188.778933 
L 127.164082 181.086629 
L 134.594137 173.800999 
L 142.024193 166.86996 
L 149.454249 160.33621 
L 156.884304 154.153413 
L 164.31436 148.280981 
L 171.744416 142.683027 
L 179.174471 137.327531 
L 186.604527 132.185683 
L 194.034583 127.231333 
L 201.464638 122.440564 
L 208.894694 117.791317 
L 216.32475 113.263097 
L 223.754805 108.836711 
L 231.184861 104.494057 
L 238.614917 100.217931 
L 246.044972 96.134073 
L 253.475028 92.320357 
L 260.905083 88.758659 
L 268.335139 85.317379 
L 275.765195 81.915895 
L 283.19525 78.560987 
L 290.625306 75.258588 
L 298.055362 72.013874 
L 305.485417 68.831335 
L 312.915473 65.714853 
L 320.345529 62.667756 
L 327.775584 59.692879 
L 335.20564 56.792611 
L 342.635696 53.968943 
L 350.065751 51.223508 
L 357.495807 48.510021 
L 364.925863 45.856224 
L 372.355918 43.236919 
L 379.785974 40.678296 
L 387.21603 38.156266 
L 394.646085 35.695565 
L 402.076141 33.273173 
L 409.506197 30.912468 
L 416.936252 28.591462 
L 424.366308 26.299885 
L 431.796364 24.045455 
" clip-path="url(#pb54ab7299c)" style="fill: none; stroke: #8c564b; stroke-opacity: 0.5; stroke-width: 1.5; stroke-linecap: square"/>
   </g>
   <g id="patch_3">
    <path d="M 49.52 302.2 
L 49.52 10.8 
" style="fill: none; stroke: #000000; stroke-width: 0.8; stroke-linejoin: miter; stroke-linecap: square"/>
   </g>
   <g id="patch_4">
    <path d="M 450 302.2 
L 450 10.8 
" style="fill: none; stroke: #000000; stroke-width: 0.8; stroke-linejoin: miter; stroke-linecap: square"/>
   </g>
   <g id="patch_5">
    <path d="M 49.52 302.2 
L 450 302.2 
" style="fill: none; stroke: #000000; stroke-width: 0.8; stroke-linejoin: miter; stroke-linecap: square"/>
   </g>
   <g id="patch_6">
    <path d="M 49.52 10.8 
L 450 10.8 
" style="fill: none; stroke: #000000; stroke-width: 0.8; stroke-linejoin: miter; stroke-linecap: square"/>
   </g>
   <g id="legend_1">
    <g id="patch_7">
     <path d="M 56.52 106.978125 
L 212.42 106.978125 
Q 214.42 106.978125 214.42 104.978125 
L 214.42 17.8 
Q 214.42 15.8 212.42 15.8 
L 56.52 15.8 
Q 54.52 15.8 54.52 17.8 
L 54.52 104.978125 
Q 54.52 106.978125 56.52 106.978125 
z
" style="fill: #ffffff; opacity: 0.8; stroke: #cccccc; stroke-linejoin: miter"/>
    </g>
    <g id="line2d_18">
     <path d="M 58.52 23.9 
L 68.52 23.9 
L 78.52 23.9 
" style="fill: none; stroke: #1f77b4; stroke-opacity: 0.5; stroke-width: 1.5; stroke-linecap: square"/>
    </g>
    <g id="text_14">
     <!-- Q-learning ($N$ = 1000) -->
     <g transform="translate(86.52 27.4) scale(0.1 -0.1)">
      <defs>
       <path id="DejaVuSans-51" d="M 2522 4238 
Q 1834 4238 1429 3725 
Q 1025 3213 1025 2328 
Q 1025 1447 1429 934 
Q 1834 422 2522 422 
Q 3209 422 3611 934 
Q 4013 1447 4013 2328 
Q 4013 3213 3611 3725 
Q 3209 4238 2522 4238 
z
M 3406 84 
L 4238 -825 
L 3475 -825 
L 2784 -78 
Q 2681 -84 2626 -87 
Q 2572 -91 2522 -91 
Q 1538 -91 948 567 
Q 359 1225 359 2328 
Q 359 3434 948 4092 
Q 1538 4750 2522 4750 
Q 3503 4750 4090 4092 
Q 4678 3434 4678 2328 
Q 4678 1516 4351 937 
Q 4025 359 3406 84 
z
" transform="scale(0.015625)"/>
       <path id="DejaVuSans-2d" d="M 313 2009 
L 1997 2009 
L 1997 1497 
L 313 1497 
L 313 2009 
z
" transform="scale(0.015625)"/>
       <path id="DejaVuSans-6c" d="M 603 4863 
L 1178 4863 
L 1178 0 
L 603 0 
L 603 4863 
z
" transform="scale(0.015625)"/>
       <path id="DejaVuSans-65" d="M 3597 1894 
L 3597 1613 
L 953 1613 
Q 991 1019 1311 708 
Q 1631 397 2203 397 
Q 2534 397 2845 478 
Q 3156 559 3463 722 
L 3463 178 
Q 3153 47 2828 -22 
Q 2503 -91 2169 -91 
Q 1331 -91 842 396 
Q 353 884 353 1716 
Q 353 2575 817 3079 
Q 1281 3584 2069 3584 
Q 2775 3584 3186 3129 
Q 3597 2675 3597 1894 
z
M 3022 2063 
Q 3016 2534 2758 2815 
Q 2500 3097 2075 3097 
Q 1594 3097 1305 2825 
Q 1016 2553 972 2059 
L 3022 2063 
z
" transform="scale(0.015625)"/>
       <path id="DejaVuSans-61" d="M 2194 1759 
Q 1497 1759 1228 1600 
Q 959 1441 959 1056 
Q 959 750 1161 570 
Q 1363 391 1709 391 
Q 2188 391 2477 730 
Q 2766 1069 2766 1631 
L 2766 1759 
L 2194 1759 
z
M 3341 1997 
L 3341 0 
L 2766 0 
L 2766 531 
Q 2569 213 2275 61 
Q 1981 -91 1556 -91 
Q 1019 -91 701 211 
Q 384 513 384 1019 
Q 384 1609 779 1909 
Q 1175 2209 1959 2209 
L 2766 2209 
L 2766 2266 
Q 2766 2663 2505 2880 
Q 2244 3097 1772 3097 
Q 1472 3097 1187 3025 
Q 903 2953 641 2809 
L 641 3341 
Q 956 3463 1253 3523 
Q 1550 3584 1831 3584 
Q 2591 3584 2966 3190 
Q 3341 2797 3341 1997 
z
" transform="scale(0.015625)"/>
       <path id="DejaVuSans-72" d="M 2631 2963 
Q 2534 3019 2420 3045 
Q 2306 3072 2169 3072 
Q 1681 3072 1420 2755 
Q 1159 2438 1159 1844 
L 1159 0 
L 581 0 
L 581 3500 
L 1159 3500 
L 1159 2956 
Q 1341 3275 1631 3429 
Q 1922 3584 2338 3584 
Q 2397 3584 2469 3576 
Q 2541 3569 2628 3553 
L 2631 2963 
z
" transform="scale(0.015625)"/>
       <path id="DejaVuSans-6e" d="M 3513 2113 
L 3513 0 
L 2938 0 
L 2938 2094 
Q 2938 2591 2744 2837 
Q 2550 3084 2163 3084 
Q 1697 3084 1428 2787 
Q 1159 2491 1159 1978 
L 1159 0 
L 581 0 
L 581 3500 
L 1159 3500 
L 1159 2956 
Q 1366 3272 1645 3428 
Q 1925 3584 2291 3584 
Q 2894 3584 3203 3211 
Q 3513 2838 3513 2113 
z
" transform="scale(0.015625)"/>
       <path id="DejaVuSans-69" d="M 603 3500 
L 1178 3500 
L 1178 0 
L 603 0 
L 603 3500 
z
M 603 4863 
L 1178 4863 
L 1178 4134 
L 603 4134 
L 603 4863 
z
" transform="scale(0.015625)"/>
       <path id="DejaVuSans-67" d="M 2906 1791 
Q 2906 2416 2648 2759 
Q 2391 3103 1925 3103 
Q 1463 3103 1205 2759 
Q 947 2416 947 1791 
Q 947 1169 1205 825 
Q 1463 481 1925 481 
Q 2391 481 2648 825 
Q 2906 1169 2906 1791 
z
M 3481 434 
Q 3481 -459 3084 -895 
Q 2688 -1331 1869 -1331 
Q 1566 -1331 1297 -1286 
Q 1028 -1241 775 -1147 
L 775 -588 
Q 1028 -725 1275 -790 
Q 1522 -856 1778 -856 
Q 2344 -856 2625 -561 
Q 2906 -266 2906 331 
L 2906 616 
Q 2728 306 2450 153 
Q 2172 0 1784 0 
Q 1141 0 747 490 
Q 353 981 353 1791 
Q 353 2603 747 3093 
Q 1141 3584 1784 3584 
Q 2172 3584 2450 3431 
Q 2728 3278 2906 2969 
L 2906 3500 
L 3481 3500 
L 3481 434 
z
" transform="scale(0.015625)"/>
       <path id="DejaVuSans-20" transform="scale(0.015625)"/>
       <path id="DejaVuSans-Oblique-4e" d="M 1081 4666 
L 1931 4666 
L 3219 666 
L 4000 4666 
L 4616 4666 
L 3706 0 
L 2853 0 
L 1569 4025 
L 788 0 
L 172 0 
L 1081 4666 
z
" transform="scale(0.015625)"/>
       <path id="DejaVuSans-3d" d="M 678 2906 
L 4684 2906 
L 4684 2381 
L 678 2381 
L 678 2906 
z
M 678 1631 
L 4684 1631 
L 4684 1100 
L 678 1100 
L 678 1631 
z
" transform="scale(0.015625)"/>
      </defs>
      <use xlink:href="#DejaVuSans-51" transform="translate(0 0.015625)"/>
      <use xlink:href="#DejaVuSans-2d" transform="translate(78.710938 0.015625)"/>
      <use xlink:href="#DejaVuSans-6c" transform="translate(114.794922 0.015625)"/>
      <use xlink:href="#DejaVuSans-65" transform="translate(142.578125 0.015625)"/>
      <use xlink:href="#DejaVuSans-61" transform="translate(204.101562 0.015625)"/>
      <use xlink:href="#DejaVuSans-72" transform="translate(265.380859 0.015625)"/>
      <use xlink:href="#DejaVuSans-6e" transform="translate(306.494141 0.015625)"/>
      <use xlink:href="#DejaVuSans-69" transform="translate(369.873047 0.015625)"/>
      <use xlink:href="#DejaVuSans-6e" transform="translate(397.65625 0.015625)"/>
      <use xlink:href="#DejaVuSans-67" transform="translate(461.035156 0.015625)"/>
      <use xlink:href="#DejaVuSans-20" transform="translate(524.511719 0.015625)"/>
      <use xlink:href="#DejaVuSans-28" transform="translate(556.298828 0.015625)"/>
      <use xlink:href="#DejaVuSans-Oblique-4e" transform="translate(595.3125 0.015625)"/>
      <use xlink:href="#DejaVuSans-20" transform="translate(670.117188 0.015625)"/>
      <use xlink:href="#DejaVuSans-3d" transform="translate(701.904297 0.015625)"/>
      <use xlink:href="#DejaVuSans-20" transform="translate(785.693359 0.015625)"/>
      <use xlink:href="#DejaVuSans-31" transform="translate(817.480469 0.015625)"/>
      <use xlink:href="#DejaVuSans-30" transform="translate(881.103516 0.015625)"/>
      <use xlink:href="#DejaVuSans-30" transform="translate(944.726562 0.015625)"/>
      <use xlink:href="#DejaVuSans-30" transform="translate(1008.349609 0.015625)"/>
      <use xlink:href="#DejaVuSans-29" transform="translate(1071.972656 0.015625)"/>
     </g>
    </g>
    <g id="line2d_19">
     <path d="M 58.52 38.6 
L 68.52 38.6 
L 78.52 38.6 
" style="fill: none; stroke: #ff7f0e; stroke-opacity: 0.5; stroke-width: 1.5; stroke-linecap: square"/>
    </g>
    <g id="text_15">
     <!-- Q-learning ($N$ = 5000) -->
     <g transform="translate(86.52 42.1) scale(0.1 -0.1)">
      <use xlink:href="#DejaVuSans-51" transform="translate(0 0.015625)"/>
      <use xlink:href="#DejaVuSans-2d" transform="translate(78.710938 0.015625)"/>
      <use xlink:href="#DejaVuSans-6c" transform="translate(114.794922 0.015625)"/>
      <use xlink:href="#DejaVuSans-65" transform="translate(142.578125 0.015625)"/>
      <use xlink:href="#DejaVuSans-61" transform="translate(204.101562 0.015625)"/>
      <use xlink:href="#DejaVuSans-72" transform="translate(265.380859 0.015625)"/>
      <use xlink:href="#DejaVuSans-6e" transform="translate(306.494141 0.015625)"/>
      <use xlink:href="#DejaVuSans-69" transform="translate(369.873047 0.015625)"/>
      <use xlink:href="#DejaVuSans-6e" transform="translate(397.65625 0.015625)"/>
      <use xlink:href="#DejaVuSans-67" transform="translate(461.035156 0.015625)"/>
      <use xlink:href="#DejaVuSans-20" transform="translate(524.511719 0.015625)"/>
      <use xlink:href="#DejaVuSans-28" transform="translate(556.298828 0.015625)"/>
      <use xlink:href="#DejaVuSans-Oblique-4e" transform="translate(595.3125 0.015625)"/>
      <use xlink:href="#DejaVuSans-20" transform="translate(670.117188 0.015625)"/>
      <use xlink:href="#DejaVuSans-3d" transform="translate(701.904297 0.015625)"/>
      <use xlink:href="#DejaVuSans-20" transform="translate(785.693359 0.015625)"/>
      <use xlink:href="#DejaVuSans-35" transform="translate(817.480469 0.015625)"/>
      <use xlink:href="#DejaVuSans-30" transform="translate(881.103516 0.015625)"/>
      <use xlink:href="#DejaVuSans-30" transform="translate(944.726562 0.015625)"/>
      <use xlink:href="#DejaVuSans-30" transform="translate(1008.349609 0.015625)"/>
      <use xlink:href="#DejaVuSans-29" transform="translate(1071.972656 0.015625)"/>
     </g>
    </g>
    <g id="line2d_20">
     <path d="M 58.52 53.3 
L 68.52 53.3 
L 78.52 53.3 
" style="fill: none; stroke: #2ca02c; stroke-opacity: 0.5; stroke-width: 1.5; stroke-linecap: square"/>
    </g>
    <g id="text_16">
     <!-- Q-learning ($N$ = 25000) -->
     <g transform="translate(86.52 56.8) scale(0.1 -0.1)">
      <use xlink:href="#DejaVuSans-51" transform="translate(0 0.015625)"/>
      <use xlink:href="#DejaVuSans-2d" transform="translate(78.710938 0.015625)"/>
      <use xlink:href="#DejaVuSans-6c" transform="translate(114.794922 0.015625)"/>
      <use xlink:href="#DejaVuSans-65" transform="translate(142.578125 0.015625)"/>
      <use xlink:href="#DejaVuSans-61" transform="translate(204.101562 0.015625)"/>
      <use xlink:href="#DejaVuSans-72" transform="translate(265.380859 0.015625)"/>
      <use xlink:href="#DejaVuSans-6e" transform="translate(306.494141 0.015625)"/>
      <use xlink:href="#DejaVuSans-69" transform="translate(369.873047 0.015625)"/>
      <use xlink:href="#DejaVuSans-6e" transform="translate(397.65625 0.015625)"/>
      <use xlink:href="#DejaVuSans-67" transform="translate(461.035156 0.015625)"/>
      <use xlink:href="#DejaVuSans-20" transform="translate(524.511719 0.015625)"/>
      <use xlink:href="#DejaVuSans-28" transform="translate(556.298828 0.015625)"/>
      <use xlink:href="#DejaVuSans-Oblique-4e" transform="translate(595.3125 0.015625)"/>
      <use xlink:href="#DejaVuSans-20" transform="translate(670.117188 0.015625)"/>
      <use xlink:href="#DejaVuSans-3d" transform="translate(701.904297 0.015625)"/>
      <use xlink:href="#DejaVuSans-20" transform="translate(785.693359 0.015625)"/>
      <use xlink:href="#DejaVuSans-32" transform="translate(817.480469 0.015625)"/>
      <use xlink:href="#DejaVuSans-35" transform="translate(881.103516 0.015625)"/>
      <use xlink:href="#DejaVuSans-30" transform="translate(944.726562 0.015625)"/>
      <use xlink:href="#DejaVuSans-30" transform="translate(1008.349609 0.015625)"/>
      <use xlink:href="#DejaVuSans-30" transform="translate(1071.972656 0.015625)"/>
      <use xlink:href="#DejaVuSans-29" transform="translate(1135.595703 0.015625)"/>
     </g>
    </g>
    <g id="line2d_21">
     <path d="M 58.52 68 
L 68.52 68 
L 78.52 68 
" style="fill: none; stroke: #d62728; stroke-opacity: 0.5; stroke-width: 1.5; stroke-linecap: square"/>
    </g>
    <g id="text_17">
     <!-- Q-learning ($N$ = 50000) -->
     <g transform="translate(86.52 71.5) scale(0.1 -0.1)">
      <use xlink:href="#DejaVuSans-51" transform="translate(0 0.015625)"/>
      <use xlink:href="#DejaVuSans-2d" transform="translate(78.710938 0.015625)"/>
      <use xlink:href="#DejaVuSans-6c" transform="translate(114.794922 0.015625)"/>
      <use xlink:href="#DejaVuSans-65" transform="translate(142.578125 0.015625)"/>
      <use xlink:href="#DejaVuSans-61" transform="translate(204.101562 0.015625)"/>
      <use xlink:href="#DejaVuSans-72" transform="translate(265.380859 0.015625)"/>
      <use xlink:href="#DejaVuSans-6e" transform="translate(306.494141 0.015625)"/>
      <use xlink:href="#DejaVuSans-69" transform="translate(369.873047 0.015625)"/>
      <use xlink:href="#DejaVuSans-6e" transform="translate(397.65625 0.015625)"/>
      <use xlink:href="#DejaVuSans-67" transform="translate(461.035156 0.015625)"/>
      <use xlink:href="#DejaVuSans-20" transform="translate(524.511719 0.015625)"/>
      <use xlink:href="#DejaVuSans-28" transform="translate(556.298828 0.015625)"/>
      <use xlink:href="#DejaVuSans-Oblique-4e" transform="translate(595.3125 0.015625)"/>
      <use xlink:href="#DejaVuSans-20" transform="translate(670.117188 0.015625)"/>
      <use xlink:href="#DejaVuSans-3d" transform="translate(701.904297 0.015625)"/>
      <use xlink:href="#DejaVuSans-20" transform="translate(785.693359 0.015625)"/>
      <use xlink:href="#DejaVuSans-35" transform="translate(817.480469 0.015625)"/>
      <use xlink:href="#DejaVuSans-30" transform="translate(881.103516 0.015625)"/>
      <use xlink:href="#DejaVuSans-30" transform="translate(944.726562 0.015625)"/>
      <use xlink:href="#DejaVuSans-30" transform="translate(1008.349609 0.015625)"/>
      <use xlink:href="#DejaVuSans-30" transform="translate(1071.972656 0.015625)"/>
      <use xlink:href="#DejaVuSans-29" transform="translate(1135.595703 0.015625)"/>
     </g>
    </g>
    <g id="line2d_22">
     <path d="M 58.52 82.7 
L 68.52 82.7 
L 78.52 82.7 
" style="fill: none; stroke: #9467bd; stroke-opacity: 0.5; stroke-width: 1.5; stroke-linecap: square"/>
    </g>
    <g id="text_18">
     <!-- Q-learning ($N$ = 100000) -->
     <g transform="translate(86.52 86.2) scale(0.1 -0.1)">
      <use xlink:href="#DejaVuSans-51" transform="translate(0 0.015625)"/>
      <use xlink:href="#DejaVuSans-2d" transform="translate(78.710938 0.015625)"/>
      <use xlink:href="#DejaVuSans-6c" transform="translate(114.794922 0.015625)"/>
      <use xlink:href="#DejaVuSans-65" transform="translate(142.578125 0.015625)"/>
      <use xlink:href="#DejaVuSans-61" transform="translate(204.101562 0.015625)"/>
      <use xlink:href="#DejaVuSans-72" transform="translate(265.380859 0.015625)"/>
      <use xlink:href="#DejaVuSans-6e" transform="translate(306.494141 0.015625)"/>
      <use xlink:href="#DejaVuSans-69" transform="translate(369.873047 0.015625)"/>
      <use xlink:href="#DejaVuSans-6e" transform="translate(397.65625 0.015625)"/>
      <use xlink:href="#DejaVuSans-67" transform="translate(461.035156 0.015625)"/>
      <use xlink:href="#DejaVuSans-20" transform="translate(524.511719 0.015625)"/>
      <use xlink:href="#DejaVuSans-28" transform="translate(556.298828 0.015625)"/>
      <use xlink:href="#DejaVuSans-Oblique-4e" transform="translate(595.3125 0.015625)"/>
      <use xlink:href="#DejaVuSans-20" transform="translate(670.117188 0.015625)"/>
      <use xlink:href="#DejaVuSans-3d" transform="translate(701.904297 0.015625)"/>
      <use xlink:href="#DejaVuSans-20" transform="translate(785.693359 0.015625)"/>
      <use xlink:href="#DejaVuSans-31" transform="translate(817.480469 0.015625)"/>
      <use xlink:href="#DejaVuSans-30" transform="translate(881.103516 0.015625)"/>
      <use xlink:href="#DejaVuSans-30" transform="translate(944.726562 0.015625)"/>
      <use xlink:href="#DejaVuSans-30" transform="translate(1008.349609 0.015625)"/>
      <use xlink:href="#DejaVuSans-30" transform="translate(1071.972656 0.015625)"/>
      <use xlink:href="#DejaVuSans-30" transform="translate(1135.595703 0.015625)"/>
      <use xlink:href="#DejaVuSans-29" transform="translate(1199.21875 0.015625)"/>
     </g>
    </g>
    <g id="line2d_23">
     <path d="M 58.52 97.398438 
L 68.52 97.398438 
L 78.52 97.398438 
" style="fill: none; stroke: #8c564b; stroke-opacity: 0.5; stroke-width: 1.5; stroke-linecap: square"/>
    </g>
    <g id="text_19">
     <!-- VFI -->
     <g transform="translate(86.52 100.898438) scale(0.1 -0.1)">
      <defs>
       <path id="DejaVuSans-56" d="M 1831 0 
L 50 4666 
L 709 4666 
L 2188 738 
L 3669 4666 
L 4325 4666 
L 2547 0 
L 1831 0 
z
" transform="scale(0.015625)"/>
       <path id="DejaVuSans-46" d="M 628 4666 
L 3309 4666 
L 3309 4134 
L 1259 4134 
L 1259 2759 
L 3109 2759 
L 3109 2228 
L 1259 2228 
L 1259 0 
L 628 0 
L 628 4666 
z
" transform="scale(0.015625)"/>
       <path id="DejaVuSans-49" d="M 628 4666 
L 1259 4666 
L 1259 0 
L 628 0 
L 628 4666 
z
" transform="scale(0.015625)"/>
      </defs>
      <use xlink:href="#DejaVuSans-56"/>
      <use xlink:href="#DejaVuSans-46" x="68.408203"/>
      <use xlink:href="#DejaVuSans-49" x="125.927734"/>
     </g>
    </g>
   </g>
  </g>
 </g>
 <defs>
  <clipPath id="pb54ab7299c">
   <rect x="49.52" y="10.8" width="400.48" height="291.4"/>
  </clipPath>
 </defs>
</svg>
