<?xml version="1.0" encoding="utf-8" standalone="no"?>
<!DOCTYPE svg PUBLIC "-//W3C//DTD SVG 1.1//EN"
  "http://www.w3.org/Graphics/SVG/1.1/DTD/svg11.dtd">
<svg xmlns:xlink="http://www.w3.org/1999/xlink" width="460.8pt" height="345.6pt" viewBox="0 0 460.8 345.6" xmlns="http://www.w3.org/2000/svg" version="1.1">
 <metadata>
  <rdf:RDF xmlns:dc="http://purl.org/dc/elements/1.1/" xmlns:cc="http://creativecommons.org/ns#" xmlns:rdf="http://www.w3.org/1999/02/22-rdf-syntax-ns#">
   <cc:Work>
    <dc:type rdf:resource="http://purl.org/dc/dcmitype/StillImage"/>
    <dc:date>2025-01-01T12:52:38.090603</dc:date>
    <dc:format>image/svg+xml</dc:format>
    <dc:creator>
     <cc:Agent>
      <dc:title>Matplotlib v3.9.2, https://matplotlib.org/</dc:title>
     </cc:Agent>
    </dc:creator>
   </cc:Work>
  </rdf:RDF>
 </metadata>
 <defs>
  <style type="text/css">*{stroke-linejoin: round; stroke-linecap: butt}</style>
 </defs>
 <g id="figure_1">
  <g id="patch_1">
   <path d="M 0 345.6 
L 460.8 345.6 
L 460.8 0 
L 0 0 
z
" style="fill: #ffffff"/>
  </g>
  <g id="axes_1">
   <g id="patch_2">
    <path d="M 57.6 307.584 
L 414.72 307.584 
L 414.72 41.472 
L 57.6 41.472 
z
" style="fill: #ffffff"/>
   </g>
   <g id="matplotlib.axis_1">
    <g id="xtick_1">
     <g id="line2d_1">
      <defs>
       <path id="m89cee264a4" d="M 0 0 
L 0 3.5 
" style="stroke: #000000; stroke-width: 0.8"/>
      </defs>
      <g>
       <use xlink:href="#m89cee264a4" x="88.197517" y="307.584" style="stroke: #000000; stroke-width: 0.8"/>
      </g>
     </g>
     <g id="text_1">
      <!-- 1 -->
      <g transform="translate(85.016267 322.182437) scale(0.1 -0.1)">
       <defs>
        <path id="DejaVuSans-31" d="M 794 531 
L 1825 531 
L 1825 4091 
L 703 3866 
L 703 4441 
L 1819 4666 
L 2450 4666 
L 2450 531 
L 3481 531 
L 3481 0 
L 794 0 
L 794 531 
z
" transform="scale(0.015625)"/>
       </defs>
       <use xlink:href="#DejaVuSans-31"/>
      </g>
     </g>
    </g>
    <g id="xtick_2">
     <g id="line2d_2">
      <g>
       <use xlink:href="#m89cee264a4" x="156.671397" y="307.584" style="stroke: #000000; stroke-width: 0.8"/>
      </g>
     </g>
     <g id="text_2">
      <!-- 2 -->
      <g transform="translate(153.490147 322.182437) scale(0.1 -0.1)">
       <defs>
        <path id="DejaVuSans-32" d="M 1228 531 
L 3431 531 
L 3431 0 
L 469 0 
L 469 531 
Q 828 903 1448 1529 
Q 2069 2156 2228 2338 
Q 2531 2678 2651 2914 
Q 2772 3150 2772 3378 
Q 2772 3750 2511 3984 
Q 2250 4219 1831 4219 
Q 1534 4219 1204 4116 
Q 875 4013 500 3803 
L 500 4441 
Q 881 4594 1212 4672 
Q 1544 4750 1819 4750 
Q 2544 4750 2975 4387 
Q 3406 4025 3406 3419 
Q 3406 3131 3298 2873 
Q 3191 2616 2906 2266 
Q 2828 2175 2409 1742 
Q 1991 1309 1228 531 
z
" transform="scale(0.015625)"/>
       </defs>
       <use xlink:href="#DejaVuSans-32"/>
      </g>
     </g>
    </g>
    <g id="xtick_3">
     <g id="line2d_3">
      <g>
       <use xlink:href="#m89cee264a4" x="225.145278" y="307.584" style="stroke: #000000; stroke-width: 0.8"/>
      </g>
     </g>
     <g id="text_3">
      <!-- 3 -->
      <g transform="translate(221.964028 322.182437) scale(0.1 -0.1)">
       <defs>
        <path id="DejaVuSans-33" d="M 2597 2516 
Q 3050 2419 3304 2112 
Q 3559 1806 3559 1356 
Q 3559 666 3084 287 
Q 2609 -91 1734 -91 
Q 1441 -91 1130 -33 
Q 819 25 488 141 
L 488 750 
Q 750 597 1062 519 
Q 1375 441 1716 441 
Q 2309 441 2620 675 
Q 2931 909 2931 1356 
Q 2931 1769 2642 2001 
Q 2353 2234 1838 2234 
L 1294 2234 
L 1294 2753 
L 1863 2753 
Q 2328 2753 2575 2939 
Q 2822 3125 2822 3475 
Q 2822 3834 2567 4026 
Q 2313 4219 1838 4219 
Q 1578 4219 1281 4162 
Q 984 4106 628 3988 
L 628 4550 
Q 988 4650 1302 4700 
Q 1616 4750 1894 4750 
Q 2613 4750 3031 4423 
Q 3450 4097 3450 3541 
Q 3450 3153 3228 2886 
Q 3006 2619 2597 2516 
z
" transform="scale(0.015625)"/>
       </defs>
       <use xlink:href="#DejaVuSans-33"/>
      </g>
     </g>
    </g>
    <g id="xtick_4">
     <g id="line2d_4">
      <g>
       <use xlink:href="#m89cee264a4" x="293.619158" y="307.584" style="stroke: #000000; stroke-width: 0.8"/>
      </g>
     </g>
     <g id="text_4">
      <!-- 4 -->
      <g transform="translate(290.437908 322.182437) scale(0.1 -0.1)">
       <defs>
        <path id="DejaVuSans-34" d="M 2419 4116 
L 825 1625 
L 2419 1625 
L 2419 4116 
z
M 2253 4666 
L 3047 4666 
L 3047 1625 
L 3713 1625 
L 3713 1100 
L 3047 1100 
L 3047 0 
L 2419 0 
L 2419 1100 
L 313 1100 
L 313 1709 
L 2253 4666 
z
" transform="scale(0.015625)"/>
       </defs>
       <use xlink:href="#DejaVuSans-34"/>
      </g>
     </g>
    </g>
    <g id="xtick_5">
     <g id="line2d_5">
      <g>
       <use xlink:href="#m89cee264a4" x="362.093039" y="307.584" style="stroke: #000000; stroke-width: 0.8"/>
      </g>
     </g>
     <g id="text_5">
      <!-- 5 -->
      <g transform="translate(358.911789 322.182437) scale(0.1 -0.1)">
       <defs>
        <path id="DejaVuSans-35" d="M 691 4666 
L 3169 4666 
L 3169 4134 
L 1269 4134 
L 1269 2991 
Q 1406 3038 1543 3061 
Q 1681 3084 1819 3084 
Q 2600 3084 3056 2656 
Q 3513 2228 3513 1497 
Q 3513 744 3044 326 
Q 2575 -91 1722 -91 
Q 1428 -91 1123 -41 
Q 819 9 494 109 
L 494 744 
Q 775 591 1075 516 
Q 1375 441 1709 441 
Q 2250 441 2565 725 
Q 2881 1009 2881 1497 
Q 2881 1984 2565 2268 
Q 2250 2553 1709 2553 
Q 1456 2553 1204 2497 
Q 953 2441 691 2322 
L 691 4666 
z
" transform="scale(0.015625)"/>
       </defs>
       <use xlink:href="#DejaVuSans-35"/>
      </g>
     </g>
    </g>
    <g id="text_6">
     <!-- $k$ -->
     <g transform="translate(232.68 337.38025) scale(0.12 -0.12)">
      <defs>
       <path id="DejaVuSans-Oblique-6b" d="M 1172 4863 
L 1747 4863 
L 1197 2028 
L 3169 3500 
L 3916 3500 
L 1716 1825 
L 3322 0 
L 2625 0 
L 1131 1709 
L 800 0 
L 225 0 
L 1172 4863 
z
" transform="scale(0.015625)"/>
      </defs>
      <use xlink:href="#DejaVuSans-Oblique-6b" transform="translate(0 0.015625)"/>
     </g>
    </g>
   </g>
   <g id="matplotlib.axis_2">
    <g id="ytick_1">
     <g id="line2d_6">
      <defs>
       <path id="m92fd95425c" d="M 0 0 
L -3.5 0 
" style="stroke: #000000; stroke-width: 0.8"/>
      </defs>
      <g>
       <use xlink:href="#m92fd95425c" x="57.6" y="276.807983" style="stroke: #000000; stroke-width: 0.8"/>
      </g>
     </g>
     <g id="text_7">
      <!-- −1 -->
      <g transform="translate(35.857813 280.607202) scale(0.1 -0.1)">
       <defs>
        <path id="DejaVuSans-2212" d="M 678 2272 
L 4684 2272 
L 4684 1741 
L 678 1741 
L 678 2272 
z
" transform="scale(0.015625)"/>
       </defs>
       <use xlink:href="#DejaVuSans-2212"/>
       <use xlink:href="#DejaVuSans-31" x="83.789062"/>
      </g>
     </g>
    </g>
    <g id="ytick_2">
     <g id="line2d_7">
      <g>
       <use xlink:href="#m92fd95425c" x="57.6" y="231.919506" style="stroke: #000000; stroke-width: 0.8"/>
      </g>
     </g>
     <g id="text_8">
      <!-- 0 -->
      <g transform="translate(44.2375 235.718725) scale(0.1 -0.1)">
       <defs>
        <path id="DejaVuSans-30" d="M 2034 4250 
Q 1547 4250 1301 3770 
Q 1056 3291 1056 2328 
Q 1056 1369 1301 889 
Q 1547 409 2034 409 
Q 2525 409 2770 889 
Q 3016 1369 3016 2328 
Q 3016 3291 2770 3770 
Q 2525 4250 2034 4250 
z
M 2034 4750 
Q 2819 4750 3233 4129 
Q 3647 3509 3647 2328 
Q 3647 1150 3233 529 
Q 2819 -91 2034 -91 
Q 1250 -91 836 529 
Q 422 1150 422 2328 
Q 422 3509 836 4129 
Q 1250 4750 2034 4750 
z
" transform="scale(0.015625)"/>
       </defs>
       <use xlink:href="#DejaVuSans-30"/>
      </g>
     </g>
    </g>
    <g id="ytick_3">
     <g id="line2d_8">
      <g>
       <use xlink:href="#m92fd95425c" x="57.6" y="187.03103" style="stroke: #000000; stroke-width: 0.8"/>
      </g>
     </g>
     <g id="text_9">
      <!-- 1 -->
      <g transform="translate(44.2375 190.830249) scale(0.1 -0.1)">
       <use xlink:href="#DejaVuSans-31"/>
      </g>
     </g>
    </g>
    <g id="ytick_4">
     <g id="line2d_9">
      <g>
       <use xlink:href="#m92fd95425c" x="57.6" y="142.142553" style="stroke: #000000; stroke-width: 0.8"/>
      </g>
     </g>
     <g id="text_10">
      <!-- 2 -->
      <g transform="translate(44.2375 145.941772) scale(0.1 -0.1)">
       <use xlink:href="#DejaVuSans-32"/>
      </g>
     </g>
    </g>
    <g id="ytick_5">
     <g id="line2d_10">
      <g>
       <use xlink:href="#m92fd95425c" x="57.6" y="97.254077" style="stroke: #000000; stroke-width: 0.8"/>
      </g>
     </g>
     <g id="text_11">
      <!-- 3 -->
      <g transform="translate(44.2375 101.053296) scale(0.1 -0.1)">
       <use xlink:href="#DejaVuSans-33"/>
      </g>
     </g>
    </g>
    <g id="ytick_6">
     <g id="line2d_11">
      <g>
       <use xlink:href="#m92fd95425c" x="57.6" y="52.3656" style="stroke: #000000; stroke-width: 0.8"/>
      </g>
     </g>
     <g id="text_12">
      <!-- 4 -->
      <g transform="translate(44.2375 56.164819) scale(0.1 -0.1)">
       <use xlink:href="#DejaVuSans-34"/>
      </g>
     </g>
    </g>
    <g id="text_13">
     <!-- $V(k)$ -->
     <g transform="translate(29.362188 186.828) rotate(-90) scale(0.12 -0.12)">
      <defs>
       <path id="DejaVuSans-Oblique-56" d="M 1319 0 
L 500 4666 
L 1119 4666 
L 1797 653 
L 4063 4666 
L 4750 4666 
L 2053 0 
L 1319 0 
z
" transform="scale(0.015625)"/>
       <path id="DejaVuSans-28" d="M 1984 4856 
Q 1566 4138 1362 3434 
Q 1159 2731 1159 2009 
Q 1159 1288 1364 580 
Q 1569 -128 1984 -844 
L 1484 -844 
Q 1016 -109 783 600 
Q 550 1309 550 2009 
Q 550 2706 781 3412 
Q 1013 4119 1484 4856 
L 1984 4856 
z
" transform="scale(0.015625)"/>
       <path id="DejaVuSans-29" d="M 513 4856 
L 1013 4856 
Q 1481 4119 1714 3412 
Q 1947 2706 1947 2009 
Q 1947 1309 1714 600 
Q 1481 -109 1013 -844 
L 513 -844 
Q 928 -128 1133 580 
Q 1338 1288 1338 2009 
Q 1338 2731 1133 3434 
Q 928 4138 513 4856 
z
" transform="scale(0.015625)"/>
      </defs>
      <use xlink:href="#DejaVuSans-Oblique-56" transform="translate(0 0.015625)"/>
      <use xlink:href="#DejaVuSans-28" transform="translate(68.408203 0.015625)"/>
      <use xlink:href="#DejaVuSans-Oblique-6b" transform="translate(107.421875 0.015625)"/>
      <use xlink:href="#DejaVuSans-29" transform="translate(165.332031 0.015625)"/>
     </g>
    </g>
   </g>
   <g id="line2d_12">
    <path d="M 73.832727 295.488 
L 80.45833 284.07867 
L 87.083933 273.69153 
L 93.709536 264.483116 
L 100.335139 255.899743 
L 106.960742 248.217983 
L 113.586345 241.317469 
L 120.211948 235.113574 
L 126.837551 229.526833 
L 133.463154 230.317975 
L 140.088757 224.096005 
L 146.71436 221.882107 
L 153.339963 215.957659 
L 159.965566 213.794986 
L 166.591169 207.34434 
L 173.216772 204.601006 
L 179.842375 208.842295 
L 186.467978 209.488993 
L 193.093581 196.712031 
L 199.719184 201.285198 
L 206.344787 194.792985 
L 212.97039 187.381865 
L 219.595993 202.808627 
L 226.221596 184.558996 
L 232.847199 188.519059 
L 239.472801 183.894154 
L 246.098404 181.321904 
L 252.724007 186.722105 
L 259.34961 174.779771 
L 265.975213 185.015284 
L 272.600816 172.763259 
L 279.226419 165.689917 
L 285.852022 170.965284 
L 292.477625 192.781511 
L 299.103228 174.083183 
L 305.728831 185.029871 
L 312.354434 160.394128 
L 318.980037 165.327783 
L 325.60564 160.544134 
L 332.231243 157.271148 
L 338.856846 169.214187 
L 345.482449 162.148466 
L 352.108052 173.699249 
L 358.733655 142.990122 
L 365.359258 98.088012 
L 371.984861 144.819394 
L 378.610464 157.113957 
L 385.236067 140.422262 
L 391.86167 160.714006 
L 398.487273 136.773475 
" clip-path="url(#pa0ac47757c)" style="fill: none; stroke: #1f77b4; stroke-opacity: 0.5; stroke-width: 1.5; stroke-linecap: square"/>
   </g>
   <g id="line2d_13">
    <path d="M 73.832727 295.483492 
L 80.45833 284.074162 
L 87.083933 273.686785 
L 93.709536 264.478371 
L 100.335139 255.894748 
L 106.960742 248.212725 
L 113.586345 241.316565 
L 120.211948 235.113116 
L 126.837551 229.525894 
L 133.463154 230.31667 
L 140.088757 224.094631 
L 146.71436 221.88028 
L 153.339963 215.957202 
L 159.965566 210.18178 
L 166.591169 207.341177 
L 173.216772 183.507437 
L 179.842375 208.841838 
L 186.467978 174.972394 
L 193.093581 172.027535 
L 199.719184 169.272896 
L 206.344787 164.317379 
L 212.97039 161.826525 
L 219.595993 167.422498 
L 226.221596 164.517117 
L 232.847199 143.016071 
L 239.472801 140.269689 
L 246.098404 147.864104 
L 252.724007 153.104825 
L 259.34961 144.848233 
L 265.975213 138.003662 
L 272.600816 128.399456 
L 279.226419 99.455336 
L 285.852022 133.022826 
L 292.477625 93.888134 
L 299.103228 130.121266 
L 305.728831 128.534382 
L 312.354434 122.824132 
L 318.980037 112.828431 
L 325.60564 117.538014 
L 332.231243 113.49531 
L 338.856846 111.446543 
L 345.482449 106.588226 
L 352.108052 102.612153 
L 358.733655 100.173767 
L 365.359258 81.439282 
L 371.984861 96.207176 
L 378.610464 109.307132 
L 385.236067 77.660018 
L 391.86167 88.128424 
L 398.487273 90.643891 
" clip-path="url(#pa0ac47757c)" style="fill: none; stroke: #ff7f0e; stroke-opacity: 0.5; stroke-width: 1.5; stroke-linecap: square"/>
   </g>
   <g id="line2d_14">
    <path d="M 73.832727 280.827614 
L 80.45833 269.418284 
L 87.083933 258.259546 
L 93.709536 249.051132 
L 100.335139 239.655548 
L 106.960742 231.118831 
L 113.586345 223.322992 
L 120.211948 216.172513 
L 126.837551 208.14355 
L 133.463154 203.134736 
L 140.088757 192.567494 
L 146.71436 184.909259 
L 153.339963 177.39201 
L 159.965566 173.767698 
L 166.591169 166.713741 
L 173.216772 159.191072 
L 179.842375 156.737688 
L 186.467978 149.37622 
L 193.093581 145.084194 
L 199.719184 140.925778 
L 206.344787 137.49038 
L 212.97039 131.413788 
L 219.595993 127.133256 
L 226.221596 123.138809 
L 232.847199 119.730454 
L 239.472801 115.926574 
L 246.098404 114.681242 
L 252.724007 109.636542 
L 259.34961 106.52455 
L 265.975213 104.154717 
L 272.600816 101.686774 
L 279.226419 99.386975 
L 285.852022 96.075239 
L 292.477625 93.817006 
L 299.103228 90.602205 
L 305.728831 87.797311 
L 312.354434 86.207129 
L 318.980037 82.562339 
L 325.60564 81.206775 
L 332.231243 77.493766 
L 338.856846 76.964224 
L 345.482449 74.027366 
L 352.108052 70.470057 
L 358.733655 69.940092 
L 365.359258 68.083012 
L 371.984861 65.502266 
L 378.610464 61.878685 
L 385.236067 61.361315 
L 391.86167 59.488985 
L 398.487273 57.696102 
" clip-path="url(#pa0ac47757c)" style="fill: none; stroke: #2ca02c; stroke-opacity: 0.5; stroke-width: 1.5; stroke-linecap: square"/>
   </g>
   <g id="line2d_15">
    <path d="M 73.832727 273.252029 
L 80.45833 260.677968 
L 87.083933 250.285245 
L 93.709536 239.850799 
L 100.335139 231.261548 
L 106.960742 222.283041 
L 113.586345 214.647118 
L 120.211948 207.040015 
L 126.837551 198.196726 
L 133.463154 193.375503 
L 140.088757 185.277782 
L 146.71436 182.858636 
L 153.339963 173.505774 
L 159.965566 168.201943 
L 166.591169 164.555191 
L 173.216772 157.699045 
L 179.842375 153.054723 
L 186.467978 147.805665 
L 193.093581 143.430979 
L 199.719184 139.185551 
L 206.344787 135.050666 
L 212.97039 131.008798 
L 219.595993 127.043415 
L 226.221596 123.138809 
L 232.847199 119.730454 
L 239.472801 115.926574 
L 246.098404 112.673967 
L 252.724007 109.530893 
L 259.34961 106.424183 
L 265.975213 103.360027 
L 272.600816 100.738947 
L 279.226419 98.482728 
L 285.852022 95.174367 
L 292.477625 92.292984 
L 299.103228 89.746376 
L 305.728831 86.984274 
L 312.354434 84.467986 
L 318.980037 81.789954 
L 325.60564 79.625389 
L 332.231243 76.76 
L 338.856846 74.358682 
L 345.482449 72.033657 
L 352.108052 69.772979 
L 358.733655 67.346926 
L 365.359258 65.171876 
L 371.984861 63.063312 
L 378.610464 60.740159 
L 385.236067 58.734465 
L 391.86167 56.512369 
L 398.487273 54.594682 
" clip-path="url(#pa0ac47757c)" style="fill: none; stroke: #d62728; stroke-opacity: 0.5; stroke-width: 1.5; stroke-linecap: square"/>
   </g>
   <g id="line2d_16">
    <path d="M 73.832727 270.885746 
L 80.45833 258.483416 
L 87.083933 247.794421 
L 93.709536 237.540744 
L 100.335139 228.639628 
L 106.960742 219.851405 
L 113.586345 212.215482 
L 120.211948 204.480398 
L 126.837551 197.480622 
L 133.463154 190.827246 
L 140.088757 184.523987 
L 146.71436 178.584925 
L 153.339963 172.967816 
L 159.965566 167.635671 
L 166.591169 162.555799 
L 173.216772 157.699045 
L 179.842375 153.054723 
L 186.467978 147.805665 
L 193.093581 143.430979 
L 199.719184 139.185551 
L 206.344787 135.050666 
L 212.97039 131.008798 
L 219.595993 127.043415 
L 226.221596 123.138809 
L 232.847199 119.40931 
L 239.472801 115.926574 
L 246.098404 112.673967 
L 252.724007 109.530893 
L 259.34961 106.424183 
L 265.975213 103.360027 
L 272.600816 100.343844 
L 279.226419 97.380357 
L 285.852022 94.473668 
L 292.477625 91.62732 
L 299.103228 88.844351 
L 305.728831 86.12735 
L 312.354434 83.478498 
L 318.980037 80.899612 
L 325.60564 78.392183 
L 332.231243 75.914176 
L 338.856846 73.490444 
L 345.482449 71.098446 
L 352.108052 68.761641 
L 358.733655 66.458475 
L 365.359258 64.211105 
L 371.984861 61.998932 
L 378.610464 59.842891 
L 385.236067 57.723305 
L 391.86167 55.630592 
L 398.487273 53.571614 
" clip-path="url(#pa0ac47757c)" style="fill: none; stroke: #9467bd; stroke-opacity: 0.5; stroke-width: 1.5; stroke-linecap: square"/>
   </g>
   <g id="line2d_17">
    <path d="M 73.832727 270.234927 
L 80.45833 258.076451 
L 87.083933 247.109348 
L 93.709536 237.11236 
L 100.335139 227.918498 
L 106.960742 219.400474 
L 113.586345 211.456399 
L 120.211948 204.005733 
L 126.837551 196.980975 
L 133.463154 190.3276 
L 140.088757 183.998044 
L 146.71436 178.0313 
L 153.339963 172.385053 
L 159.965566 167.022236 
L 166.591169 161.910078 
L 173.216772 157.019339 
L 179.842375 152.323705 
L 186.467978 147.799299 
L 193.093581 143.424277 
L 199.719184 139.178497 
L 206.344787 135.043241 
L 212.97039 131.000982 
L 219.595993 127.035187 
L 226.221596 123.130149 
L 232.847199 119.400692 
L 239.472801 115.917934 
L 246.098404 112.665324 
L 252.724007 109.522682 
L 259.34961 106.416382 
L 265.975213 103.352617 
L 272.600816 100.336804 
L 279.226419 97.373669 
L 285.852022 94.467315 
L 292.477625 91.621284 
L 299.103228 88.838617 
L 305.728831 86.121903 
L 312.354434 83.473323 
L 318.980037 80.894696 
L 325.60564 78.387513 
L 332.231243 75.909505 
L 338.856846 73.486008 
L 345.482449 71.094009 
L 352.108052 68.757426 
L 358.733655 66.45426 
L 365.359258 64.207101 
L 371.984861 61.994927 
L 378.610464 59.839087 
L 385.236067 57.7195 
L 391.86167 55.626788 
L 398.487273 53.568 
" clip-path="url(#pa0ac47757c)" style="fill: none; stroke: #8c564b; stroke-opacity: 0.5; stroke-width: 1.5; stroke-linecap: square"/>
   </g>
   <g id="patch_3">
    <path d="M 57.6 307.584 
L 57.6 41.472 
" style="fill: none; stroke: #000000; stroke-width: 0.8; stroke-linejoin: miter; stroke-linecap: square"/>
   </g>
   <g id="patch_4">
    <path d="M 414.72 307.584 
L 414.72 41.472 
" style="fill: none; stroke: #000000; stroke-width: 0.8; stroke-linejoin: miter; stroke-linecap: square"/>
   </g>
   <g id="patch_5">
    <path d="M 57.6 307.584 
L 414.72 307.584 
" style="fill: none; stroke: #000000; stroke-width: 0.8; stroke-linejoin: miter; stroke-linecap: square"/>
   </g>
   <g id="patch_6">
    <path d="M 57.6 41.472 
L 414.72 41.472 
" style="fill: none; stroke: #000000; stroke-width: 0.8; stroke-linejoin: miter; stroke-linecap: square"/>
   </g>
   <g id="legend_1">
    <g id="patch_7">
     <path d="M 251.82 302.584 
L 407.72 302.584 
Q 409.72 302.584 409.72 300.584 
L 409.72 213.405875 
Q 409.72 211.405875 407.72 211.405875 
L 251.82 211.405875 
Q 249.82 211.405875 249.82 213.405875 
L 249.82 300.584 
Q 249.82 302.584 251.82 302.584 
z
" style="fill: #ffffff; opacity: 0.8; stroke: #cccccc; stroke-linejoin: miter"/>
    </g>
    <g id="line2d_18">
     <path d="M 253.82 219.505875 
L 263.82 219.505875 
L 273.82 219.505875 
" style="fill: none; stroke: #1f77b4; stroke-opacity: 0.5; stroke-width: 1.5; stroke-linecap: square"/>
    </g>
    <g id="text_14">
     <!-- Q-learning ($N$ = 1000) -->
     <g transform="translate(281.82 223.005875) scale(0.1 -0.1)">
      <defs>
       <path id="DejaVuSans-51" d="M 2522 4238 
Q 1834 4238 1429 3725 
Q 1025 3213 1025 2328 
Q 1025 1447 1429 934 
Q 1834 422 2522 422 
Q 3209 422 3611 934 
Q 4013 1447 4013 2328 
Q 4013 3213 3611 3725 
Q 3209 4238 2522 4238 
z
M 3406 84 
L 4238 -825 
L 3475 -825 
L 2784 -78 
Q 2681 -84 2626 -87 
Q 2572 -91 2522 -91 
Q 1538 -91 948 567 
Q 359 1225 359 2328 
Q 359 3434 948 4092 
Q 1538 4750 2522 4750 
Q 3503 4750 4090 4092 
Q 4678 3434 4678 2328 
Q 4678 1516 4351 937 
Q 4025 359 3406 84 
z
" transform="scale(0.015625)"/>
       <path id="DejaVuSans-2d" d="M 313 2009 
L 1997 2009 
L 1997 1497 
L 313 1497 
L 313 2009 
z
" transform="scale(0.015625)"/>
       <path id="DejaVuSans-6c" d="M 603 4863 
L 1178 4863 
L 1178 0 
L 603 0 
L 603 4863 
z
" transform="scale(0.015625)"/>
       <path id="DejaVuSans-65" d="M 3597 1894 
L 3597 1613 
L 953 1613 
Q 991 1019 1311 708 
Q 1631 397 2203 397 
Q 2534 397 2845 478 
Q 3156 559 3463 722 
L 3463 178 
Q 3153 47 2828 -22 
Q 2503 -91 2169 -91 
Q 1331 -91 842 396 
Q 353 884 353 1716 
Q 353 2575 817 3079 
Q 1281 3584 2069 3584 
Q 2775 3584 3186 3129 
Q 3597 2675 3597 1894 
z
M 3022 2063 
Q 3016 2534 2758 2815 
Q 2500 3097 2075 3097 
Q 1594 3097 1305 2825 
Q 1016 2553 972 2059 
L 3022 2063 
z
" transform="scale(0.015625)"/>
       <path id="DejaVuSans-61" d="M 2194 1759 
Q 1497 1759 1228 1600 
Q 959 1441 959 1056 
Q 959 750 1161 570 
Q 1363 391 1709 391 
Q 2188 391 2477 730 
Q 2766 1069 2766 1631 
L 2766 1759 
L 2194 1759 
z
M 3341 1997 
L 3341 0 
L 2766 0 
L 2766 531 
Q 2569 213 2275 61 
Q 1981 -91 1556 -91 
Q 1019 -91 701 211 
Q 384 513 384 1019 
Q 384 1609 779 1909 
Q 1175 2209 1959 2209 
L 2766 2209 
L 2766 2266 
Q 2766 2663 2505 2880 
Q 2244 3097 1772 3097 
Q 1472 3097 1187 3025 
Q 903 2953 641 2809 
L 641 3341 
Q 956 3463 1253 3523 
Q 1550 3584 1831 3584 
Q 2591 3584 2966 3190 
Q 3341 2797 3341 1997 
z
" transform="scale(0.015625)"/>
       <path id="DejaVuSans-72" d="M 2631 2963 
Q 2534 3019 2420 3045 
Q 2306 3072 2169 3072 
Q 1681 3072 1420 2755 
Q 1159 2438 1159 1844 
L 1159 0 
L 581 0 
L 581 3500 
L 1159 3500 
L 1159 2956 
Q 1341 3275 1631 3429 
Q 1922 3584 2338 3584 
Q 2397 3584 2469 3576 
Q 2541 3569 2628 3553 
L 2631 2963 
z
" transform="scale(0.015625)"/>
       <path id="DejaVuSans-6e" d="M 3513 2113 
L 3513 0 
L 2938 0 
L 2938 2094 
Q 2938 2591 2744 2837 
Q 2550 3084 2163 3084 
Q 1697 3084 1428 2787 
Q 1159 2491 1159 1978 
L 1159 0 
L 581 0 
L 581 3500 
L 1159 3500 
L 1159 2956 
Q 1366 3272 1645 3428 
Q 1925 3584 2291 3584 
Q 2894 3584 3203 3211 
Q 3513 2838 3513 2113 
z
" transform="scale(0.015625)"/>
       <path id="DejaVuSans-69" d="M 603 3500 
L 1178 3500 
L 1178 0 
L 603 0 
L 603 3500 
z
M 603 4863 
L 1178 4863 
L 1178 4134 
L 603 4134 
L 603 4863 
z
" transform="scale(0.015625)"/>
       <path id="DejaVuSans-67" d="M 2906 1791 
Q 2906 2416 2648 2759 
Q 2391 3103 1925 3103 
Q 1463 3103 1205 2759 
Q 947 2416 947 1791 
Q 947 1169 1205 825 
Q 1463 481 1925 481 
Q 2391 481 2648 825 
Q 2906 1169 2906 1791 
z
M 3481 434 
Q 3481 -459 3084 -895 
Q 2688 -1331 1869 -1331 
Q 1566 -1331 1297 -1286 
Q 1028 -1241 775 -1147 
L 775 -588 
Q 1028 -725 1275 -790 
Q 1522 -856 1778 -856 
Q 2344 -856 2625 -561 
Q 2906 -266 2906 331 
L 2906 616 
Q 2728 306 2450 153 
Q 2172 0 1784 0 
Q 1141 0 747 490 
Q 353 981 353 1791 
Q 353 2603 747 3093 
Q 1141 3584 1784 3584 
Q 2172 3584 2450 3431 
Q 2728 3278 2906 2969 
L 2906 3500 
L 3481 3500 
L 3481 434 
z
" transform="scale(0.015625)"/>
       <path id="DejaVuSans-20" transform="scale(0.015625)"/>
       <path id="DejaVuSans-Oblique-4e" d="M 1081 4666 
L 1931 4666 
L 3219 666 
L 4000 4666 
L 4616 4666 
L 3706 0 
L 2853 0 
L 1569 4025 
L 788 0 
L 172 0 
L 1081 4666 
z
" transform="scale(0.015625)"/>
       <path id="DejaVuSans-3d" d="M 678 2906 
L 4684 2906 
L 4684 2381 
L 678 2381 
L 678 2906 
z
M 678 1631 
L 4684 1631 
L 4684 1100 
L 678 1100 
L 678 1631 
z
" transform="scale(0.015625)"/>
      </defs>
      <use xlink:href="#DejaVuSans-51" transform="translate(0 0.015625)"/>
      <use xlink:href="#DejaVuSans-2d" transform="translate(78.710938 0.015625)"/>
      <use xlink:href="#DejaVuSans-6c" transform="translate(114.794922 0.015625)"/>
      <use xlink:href="#DejaVuSans-65" transform="translate(142.578125 0.015625)"/>
      <use xlink:href="#DejaVuSans-61" transform="translate(204.101562 0.015625)"/>
      <use xlink:href="#DejaVuSans-72" transform="translate(265.380859 0.015625)"/>
      <use xlink:href="#DejaVuSans-6e" transform="translate(306.494141 0.015625)"/>
      <use xlink:href="#DejaVuSans-69" transform="translate(369.873047 0.015625)"/>
      <use xlink:href="#DejaVuSans-6e" transform="translate(397.65625 0.015625)"/>
      <use xlink:href="#DejaVuSans-67" transform="translate(461.035156 0.015625)"/>
      <use xlink:href="#DejaVuSans-20" transform="translate(524.511719 0.015625)"/>
      <use xlink:href="#DejaVuSans-28" transform="translate(556.298828 0.015625)"/>
      <use xlink:href="#DejaVuSans-Oblique-4e" transform="translate(595.3125 0.015625)"/>
      <use xlink:href="#DejaVuSans-20" transform="translate(670.117188 0.015625)"/>
      <use xlink:href="#DejaVuSans-3d" transform="translate(701.904297 0.015625)"/>
      <use xlink:href="#DejaVuSans-20" transform="translate(785.693359 0.015625)"/>
      <use xlink:href="#DejaVuSans-31" transform="translate(817.480469 0.015625)"/>
      <use xlink:href="#DejaVuSans-30" transform="translate(881.103516 0.015625)"/>
      <use xlink:href="#DejaVuSans-30" transform="translate(944.726562 0.015625)"/>
      <use xlink:href="#DejaVuSans-30" transform="translate(1008.349609 0.015625)"/>
      <use xlink:href="#DejaVuSans-29" transform="translate(1071.972656 0.015625)"/>
     </g>
    </g>
    <g id="line2d_19">
     <path d="M 253.82 234.205875 
L 263.82 234.205875 
L 273.82 234.205875 
" style="fill: none; stroke: #ff7f0e; stroke-opacity: 0.5; stroke-width: 1.5; stroke-linecap: square"/>
    </g>
    <g id="text_15">
     <!-- Q-learning ($N$ = 5000) -->
     <g transform="translate(281.82 237.705875) scale(0.1 -0.1)">
      <use xlink:href="#DejaVuSans-51" transform="translate(0 0.015625)"/>
      <use xlink:href="#DejaVuSans-2d" transform="translate(78.710938 0.015625)"/>
      <use xlink:href="#DejaVuSans-6c" transform="translate(114.794922 0.015625)"/>
      <use xlink:href="#DejaVuSans-65" transform="translate(142.578125 0.015625)"/>
      <use xlink:href="#DejaVuSans-61" transform="translate(204.101562 0.015625)"/>
      <use xlink:href="#DejaVuSans-72" transform="translate(265.380859 0.015625)"/>
      <use xlink:href="#DejaVuSans-6e" transform="translate(306.494141 0.015625)"/>
      <use xlink:href="#DejaVuSans-69" transform="translate(369.873047 0.015625)"/>
      <use xlink:href="#DejaVuSans-6e" transform="translate(397.65625 0.015625)"/>
      <use xlink:href="#DejaVuSans-67" transform="translate(461.035156 0.015625)"/>
      <use xlink:href="#DejaVuSans-20" transform="translate(524.511719 0.015625)"/>
      <use xlink:href="#DejaVuSans-28" transform="translate(556.298828 0.015625)"/>
      <use xlink:href="#DejaVuSans-Oblique-4e" transform="translate(595.3125 0.015625)"/>
      <use xlink:href="#DejaVuSans-20" transform="translate(670.117188 0.015625)"/>
      <use xlink:href="#DejaVuSans-3d" transform="translate(701.904297 0.015625)"/>
      <use xlink:href="#DejaVuSans-20" transform="translate(785.693359 0.015625)"/>
      <use xlink:href="#DejaVuSans-35" transform="translate(817.480469 0.015625)"/>
      <use xlink:href="#DejaVuSans-30" transform="translate(881.103516 0.015625)"/>
      <use xlink:href="#DejaVuSans-30" transform="translate(944.726562 0.015625)"/>
      <use xlink:href="#DejaVuSans-30" transform="translate(1008.349609 0.015625)"/>
      <use xlink:href="#DejaVuSans-29" transform="translate(1071.972656 0.015625)"/>
     </g>
    </g>
    <g id="line2d_20">
     <path d="M 253.82 248.905875 
L 263.82 248.905875 
L 273.82 248.905875 
" style="fill: none; stroke: #2ca02c; stroke-opacity: 0.5; stroke-width: 1.5; stroke-linecap: square"/>
    </g>
    <g id="text_16">
     <!-- Q-learning ($N$ = 25000) -->
     <g transform="translate(281.82 252.405875) scale(0.1 -0.1)">
      <use xlink:href="#DejaVuSans-51" transform="translate(0 0.015625)"/>
      <use xlink:href="#DejaVuSans-2d" transform="translate(78.710938 0.015625)"/>
      <use xlink:href="#DejaVuSans-6c" transform="translate(114.794922 0.015625)"/>
      <use xlink:href="#DejaVuSans-65" transform="translate(142.578125 0.015625)"/>
      <use xlink:href="#DejaVuSans-61" transform="translate(204.101562 0.015625)"/>
      <use xlink:href="#DejaVuSans-72" transform="translate(265.380859 0.015625)"/>
      <use xlink:href="#DejaVuSans-6e" transform="translate(306.494141 0.015625)"/>
      <use xlink:href="#DejaVuSans-69" transform="translate(369.873047 0.015625)"/>
      <use xlink:href="#DejaVuSans-6e" transform="translate(397.65625 0.015625)"/>
      <use xlink:href="#DejaVuSans-67" transform="translate(461.035156 0.015625)"/>
      <use xlink:href="#DejaVuSans-20" transform="translate(524.511719 0.015625)"/>
      <use xlink:href="#DejaVuSans-28" transform="translate(556.298828 0.015625)"/>
      <use xlink:href="#DejaVuSans-Oblique-4e" transform="translate(595.3125 0.015625)"/>
      <use xlink:href="#DejaVuSans-20" transform="translate(670.117188 0.015625)"/>
      <use xlink:href="#DejaVuSans-3d" transform="translate(701.904297 0.015625)"/>
      <use xlink:href="#DejaVuSans-20" transform="translate(785.693359 0.015625)"/>
      <use xlink:href="#DejaVuSans-32" transform="translate(817.480469 0.015625)"/>
      <use xlink:href="#DejaVuSans-35" transform="translate(881.103516 0.015625)"/>
      <use xlink:href="#DejaVuSans-30" transform="translate(944.726562 0.015625)"/>
      <use xlink:href="#DejaVuSans-30" transform="translate(1008.349609 0.015625)"/>
      <use xlink:href="#DejaVuSans-30" transform="translate(1071.972656 0.015625)"/>
      <use xlink:href="#DejaVuSans-29" transform="translate(1135.595703 0.015625)"/>
     </g>
    </g>
    <g id="line2d_21">
     <path d="M 253.82 263.605875 
L 263.82 263.605875 
L 273.82 263.605875 
" style="fill: none; stroke: #d62728; stroke-opacity: 0.5; stroke-width: 1.5; stroke-linecap: square"/>
    </g>
    <g id="text_17">
     <!-- Q-learning ($N$ = 50000) -->
     <g transform="translate(281.82 267.105875) scale(0.1 -0.1)">
      <use xlink:href="#DejaVuSans-51" transform="translate(0 0.015625)"/>
      <use xlink:href="#DejaVuSans-2d" transform="translate(78.710938 0.015625)"/>
      <use xlink:href="#DejaVuSans-6c" transform="translate(114.794922 0.015625)"/>
      <use xlink:href="#DejaVuSans-65" transform="translate(142.578125 0.015625)"/>
      <use xlink:href="#DejaVuSans-61" transform="translate(204.101562 0.015625)"/>
      <use xlink:href="#DejaVuSans-72" transform="translate(265.380859 0.015625)"/>
      <use xlink:href="#DejaVuSans-6e" transform="translate(306.494141 0.015625)"/>
      <use xlink:href="#DejaVuSans-69" transform="translate(369.873047 0.015625)"/>
      <use xlink:href="#DejaVuSans-6e" transform="translate(397.65625 0.015625)"/>
      <use xlink:href="#DejaVuSans-67" transform="translate(461.035156 0.015625)"/>
      <use xlink:href="#DejaVuSans-20" transform="translate(524.511719 0.015625)"/>
      <use xlink:href="#DejaVuSans-28" transform="translate(556.298828 0.015625)"/>
      <use xlink:href="#DejaVuSans-Oblique-4e" transform="translate(595.3125 0.015625)"/>
      <use xlink:href="#DejaVuSans-20" transform="translate(670.117188 0.015625)"/>
      <use xlink:href="#DejaVuSans-3d" transform="translate(701.904297 0.015625)"/>
      <use xlink:href="#DejaVuSans-20" transform="translate(785.693359 0.015625)"/>
      <use xlink:href="#DejaVuSans-35" transform="translate(817.480469 0.015625)"/>
      <use xlink:href="#DejaVuSans-30" transform="translate(881.103516 0.015625)"/>
      <use xlink:href="#DejaVuSans-30" transform="translate(944.726562 0.015625)"/>
      <use xlink:href="#DejaVuSans-30" transform="translate(1008.349609 0.015625)"/>
      <use xlink:href="#DejaVuSans-30" transform="translate(1071.972656 0.015625)"/>
      <use xlink:href="#DejaVuSans-29" transform="translate(1135.595703 0.015625)"/>
     </g>
    </g>
    <g id="line2d_22">
     <path d="M 253.82 278.305875 
L 263.82 278.305875 
L 273.82 278.305875 
" style="fill: none; stroke: #9467bd; stroke-opacity: 0.5; stroke-width: 1.5; stroke-linecap: square"/>
    </g>
    <g id="text_18">
     <!-- Q-learning ($N$ = 100000) -->
     <g transform="translate(281.82 281.805875) scale(0.1 -0.1)">
      <use xlink:href="#DejaVuSans-51" transform="translate(0 0.015625)"/>
      <use xlink:href="#DejaVuSans-2d" transform="translate(78.710938 0.015625)"/>
      <use xlink:href="#DejaVuSans-6c" transform="translate(114.794922 0.015625)"/>
      <use xlink:href="#DejaVuSans-65" transform="translate(142.578125 0.015625)"/>
      <use xlink:href="#DejaVuSans-61" transform="translate(204.101562 0.015625)"/>
      <use xlink:href="#DejaVuSans-72" transform="translate(265.380859 0.015625)"/>
      <use xlink:href="#DejaVuSans-6e" transform="translate(306.494141 0.015625)"/>
      <use xlink:href="#DejaVuSans-69" transform="translate(369.873047 0.015625)"/>
      <use xlink:href="#DejaVuSans-6e" transform="translate(397.65625 0.015625)"/>
      <use xlink:href="#DejaVuSans-67" transform="translate(461.035156 0.015625)"/>
      <use xlink:href="#DejaVuSans-20" transform="translate(524.511719 0.015625)"/>
      <use xlink:href="#DejaVuSans-28" transform="translate(556.298828 0.015625)"/>
      <use xlink:href="#DejaVuSans-Oblique-4e" transform="translate(595.3125 0.015625)"/>
      <use xlink:href="#DejaVuSans-20" transform="translate(670.117188 0.015625)"/>
      <use xlink:href="#DejaVuSans-3d" transform="translate(701.904297 0.015625)"/>
      <use xlink:href="#DejaVuSans-20" transform="translate(785.693359 0.015625)"/>
      <use xlink:href="#DejaVuSans-31" transform="translate(817.480469 0.015625)"/>
      <use xlink:href="#DejaVuSans-30" transform="translate(881.103516 0.015625)"/>
      <use xlink:href="#DejaVuSans-30" transform="translate(944.726562 0.015625)"/>
      <use xlink:href="#DejaVuSans-30" transform="translate(1008.349609 0.015625)"/>
      <use xlink:href="#DejaVuSans-30" transform="translate(1071.972656 0.015625)"/>
      <use xlink:href="#DejaVuSans-30" transform="translate(1135.595703 0.015625)"/>
      <use xlink:href="#DejaVuSans-29" transform="translate(1199.21875 0.015625)"/>
     </g>
    </g>
    <g id="line2d_23">
     <path d="M 253.82 293.004312 
L 263.82 293.004312 
L 273.82 293.004312 
" style="fill: none; stroke: #8c564b; stroke-opacity: 0.5; stroke-width: 1.5; stroke-linecap: square"/>
    </g>
    <g id="text_19">
     <!-- VFI -->
     <g transform="translate(281.82 296.504312) scale(0.1 -0.1)">
      <defs>
       <path id="DejaVuSans-56" d="M 1831 0 
L 50 4666 
L 709 4666 
L 2188 738 
L 3669 4666 
L 4325 4666 
L 2547 0 
L 1831 0 
z
" transform="scale(0.015625)"/>
       <path id="DejaVuSans-46" d="M 628 4666 
L 3309 4666 
L 3309 4134 
L 1259 4134 
L 1259 2759 
L 3109 2759 
L 3109 2228 
L 1259 2228 
L 1259 0 
L 628 0 
L 628 4666 
z
" transform="scale(0.015625)"/>
       <path id="DejaVuSans-49" d="M 628 4666 
L 1259 4666 
L 1259 0 
L 628 0 
L 628 4666 
z
" transform="scale(0.015625)"/>
      </defs>
      <use xlink:href="#DejaVuSans-56"/>
      <use xlink:href="#DejaVuSans-46" x="68.408203"/>
      <use xlink:href="#DejaVuSans-49" x="125.927734"/>
     </g>
    </g>
   </g>
  </g>
 </g>
 <defs>
  <clipPath id="pa0ac47757c">
   <rect x="57.6" y="41.472" width="357.12" height="266.112"/>
  </clipPath>
 </defs>
</svg>
